<?xml version="1.0" standalone="no"?><!DOCTYPE svg PUBLIC "-//W3C//DTD SVG 1.1//EN" "http://www.w3.org/Graphics/SVG/1.1/DTD/svg11.dtd"><svg t="1509856745746" class="icon" style="" viewBox="0 0 1024 1024" version="1.1" xmlns="http://www.w3.org/2000/svg" p-id="623" xmlns:xlink="http://www.w3.org/1999/xlink" width="200" height="200"><defs><style type="text/css"></style></defs><path d="M896.2 599.2c-8.5-53.3-43.3-98.1-146.3-139.8-35.8-16.8-75.6-28.5-87.5-55.5-4.4-16.1-5.1-24.8-2.2-34.3 7.3-31.4 44.5-40.9 73.8-32.1 19 5.8 36.5 20.4 47.5 43.8 50.4-32.9 50.4-32.9 85.4-54.8-13.1-20.4-19.7-29.2-28.5-38-30.7-34.3-71.6-51.8-138-50.4l-34.3 4.4c-32.9 8-64.3 25.6-83.2 48.9-55.5 62.8-39.4 172.3 27.7 217.6 66.4 49.7 163.6 60.6 176 107.3 11.7 57-42.4 75.2-95.7 68.6-39.4-8.8-61.3-28.5-85.4-65L516.4 671c10.2 23.4 21.9 33.6 39.4 54 84.7 85.4 296.5 81.1 334.4-48.9 1.5-4.4 11.7-34.3 3.7-80.3l2.3 3.4zM458.8 246.5H349.5c0 94.3-0.4 188.1-0.4 282.6 0 60 3.1 115.1-6.7 131.9-16.1 33.6-57.4 29.2-76.2 23.4-19.3-9.5-29.1-22.6-40.4-41.6-3.1-5.1-5.4-9.5-6.2-9.5l-89 54.7c14.8 30.7 36.5 57 64.5 73.8 41.6 24.8 97.6 32.9 156.1 19.7 38.1-11 71-33.6 88.1-68.6 24.8-45.3 19.6-100.8 19.4-162.8 0.6-100 0-200.1 0-300.8l0.1-2.8z" p-id="624"></path></svg>