<?xml version="1.0" standalone="no"?><!DOCTYPE svg PUBLIC "-//W3C//DTD SVG 1.1//EN" "http://www.w3.org/Graphics/SVG/1.1/DTD/svg11.dtd"><svg t="1509797413004" class="icon" style="" viewBox="0 0 1024 1024" version="1.1" xmlns="http://www.w3.org/2000/svg" p-id="727" xmlns:xlink="http://www.w3.org/1999/xlink" width="200" height="200"><defs><style type="text/css"></style></defs><path d="M470.256 13.001c25.279-14.47 58.21-14.536 83.466 0 127.073 71.802 254.19 143.494 381.24 215.34 23.898 13.462 39.881 40.056 39.64 67.593v431.995c0.175 28.677-17.386 55.907-42.599 69.062-126.656 71.407-253.247 142.902-379.882 214.31-25.804 14.754-59.392 13.614-84.386-2.347-37.973-22.011-76.011-43.914-113.984-65.904-7.762-4.626-16.51-8.31-21.99-15.83 4.845-6.533 13.505-7.344 20.543-10.194 15.85-5.043 30.409-13.133 44.966-20.981 3.684-2.522 8.178-1.557 11.708 0.701 32.47 18.614 64.655 37.776 97.234 56.214 6.95 4.012 13.988-1.316 19.93-4.626 124.288-70.245 248.73-140.228 372.997-210.495 4.604-2.214 7.147-7.103 6.774-12.146 0.088-142.508 0.022-285.037 0.044-427.545 0.526-5.722-2.784-10.984-7.958-13.33C771.78 213.74 645.629 142.552 519.432 71.451c-4.516-3.07-10.348-3.091-14.864-0.022-126.196 71.123-252.327 142.376-378.523 213.455-5.152 2.346-8.616 7.52-8.002 13.264 0.022 142.508 0 285.037 0 427.567a12.087 12.087 0 0 0 6.862 11.993c33.676 19.096 67.395 38.06 101.093 57.09 18.986 10.217 42.292 16.29 63.208 8.463 18.46-6.621 31.395-25.454 31.044-45.054 0.176-141.675-0.087-283.371 0.132-425.024-0.46-6.292 5.503-11.488 11.62-10.896 16.18-0.11 32.382-0.22 48.562 0.043 6.753-0.153 11.4 6.622 10.568 12.958-0.066 142.573 0.175 285.147-0.11 427.72 0.044 37.995-15.566 79.344-50.71 97.936-43.301 22.428-96.818 17.67-139.593-3.837-37.03-18.482-72.372-40.297-108.744-60.094-25.279-13.09-42.752-40.429-42.577-69.084V295.934c-0.263-28.107 16.356-55.184 40.998-68.448 126.635-71.473 253.248-142.99 379.86-214.485z m110.477 299.244c55.227-3.551 114.357-2.104 164.059 25.104 38.477 20.85 59.81 64.61 60.489 107.363-1.074 5.766-7.104 8.945-12.607 8.55-16.026-0.022-32.053 0.22-48.08-0.11-6.796 0.264-10.742-6.007-11.597-12.014-4.605-20.455-15.764-40.713-35.013-50.58-29.554-14.798-63.822-14.053-96.05-13.746-23.525 1.25-48.826 3.289-68.755 17.123-15.303 10.48-19.951 31.637-14.492 48.672 5.152 12.234 19.271 16.18 30.825 19.82 66.562 17.407 137.093 15.675 202.383 38.586 27.033 9.34 53.474 27.493 62.726 55.797 12.102 37.93 6.796 83.269-20.193 113.722-21.88 25.059-53.758 38.696-85.548 46.106-42.292 9.428-86.184 9.669-129.134 5.481-40.385-4.604-82.413-15.215-113.59-42.73-26.66-23.152-39.683-59.217-38.389-94.033 0.307-5.876 6.16-9.976 11.795-9.493 16.136-0.132 32.273-0.176 48.409 0.022 6.446-0.46 11.225 5.108 11.554 11.18 2.982 19.492 10.304 39.947 27.296 51.501 32.798 21.157 73.95 19.71 111.507 20.302 31.11-1.381 66.035-1.798 91.424-22.363 13.395-11.73 17.364-31.352 13.746-48.233-3.924-14.251-18.833-20.894-31.636-25.235-65.707-20.784-137.027-13.242-202.098-36.745-26.419-9.34-51.96-26.989-62.112-54.131-14.163-38.411-7.673-85.921 22.144-115.344 29.071-29.269 71.034-40.538 110.937-44.572z" p-id="728"></path></svg>