<?xml version="1.0" standalone="no"?><!DOCTYPE svg PUBLIC "-//W3C//DTD SVG 1.1//EN" "http://www.w3.org/Graphics/SVG/1.1/DTD/svg11.dtd"><svg t="1509780294485" class="icon" style="" viewBox="0 0 1024 1024" version="1.1" xmlns="http://www.w3.org/2000/svg" p-id="659" xmlns:xlink="http://www.w3.org/1999/xlink" width="200" height="200"><defs><style type="text/css"></style></defs><path d="M511.99383 0C229.233194 0 0.018511 229.251705 0.018511 512s229.214683 511.987659 511.975319 511.987659 511.987659-229.202343 511.987659-511.987659S794.766806 0 511.99383 0z m281.835089 671.576562c-13.229145 12.34062-35.923546-1.098315-57.741763-31.295813a330.444793 330.444793 0 0 1-36.046953 70.255152c30.851551 11.106558 50.596544 28.260021 50.596544 47.659476 0 33.504784-59.234978 60.617127-132.464219 60.617128-43.414303 0-81.768951-9.477596-106.00593-24.24932-24.027188 14.808744-62.591627 24.249319-106.005929 24.24932-73.167538 0-132.464219-27.149365-132.464219-60.617128 0-19.177324 19.831377-36.58994 50.695268-47.610113a320.498253 320.498253 0 0 1-36.145677-70.341537c-21.818217 29.975367-44.524958 43.636434-57.741763 31.295814-18.066668-16.968353-11.242305-76.919087 15.647907-133.784666a268.470197 268.470197 0 0 1 19.609246-34.825231c3.702186-165.364313 112.620502-297.988961 246.183036-297.988961h0.518306c133.562535 0 242.431488 132.464219 246.183037 297.988961a268.556581 268.556581 0 0 1 19.596905 34.837571c26.692762 56.89026 33.714575 116.840994 15.586204 133.809347z" p-id="660"></path></svg>