<?xml version="1.0" standalone="no"?><!DOCTYPE svg PUBLIC "-//W3C//DTD SVG 1.1//EN" "http://www.w3.org/Graphics/SVG/1.1/DTD/svg11.dtd"><svg t="1509780317393" class="icon" style="" viewBox="0 0 1024 1024" version="1.1" xmlns="http://www.w3.org/2000/svg" p-id="1025" xmlns:xlink="http://www.w3.org/1999/xlink" width="200" height="200"><defs><style type="text/css"></style></defs><path d="M749.48608 20.11136 274.55488 20.11136c-28.13952 0-50.91328 22.81472-50.91328 50.91328l0 882.03264c0 28.09856 22.81472 50.87232 50.91328 50.87232l474.9312 0c28.13952 0 50.87232-22.81472 50.87232-50.87232L800.3584 71.02464C800.3584 42.88512 777.58464 20.11136 749.48608 20.11136zM512 935.1168c-18.71872 0-33.91488-15.19616-33.91488-33.91488s15.19616-33.91488 33.91488-33.91488c18.75968 0 33.91488 15.19616 33.91488 33.91488S530.75968 935.1168 512 935.1168zM733.55264 810.47552 290.44736 810.47552 290.44736 145.77664l443.10528 0L733.55264 810.47552z" p-id="1026"></path></svg>