<?xml version="1.0" standalone="no"?><!DOCTYPE svg PUBLIC "-//W3C//DTD SVG 1.1//EN" "http://www.w3.org/Graphics/SVG/1.1/DTD/svg11.dtd"><svg t="1509780310732" class="icon" style="" viewBox="0 0 1040 1024" version="1.1" xmlns="http://www.w3.org/2000/svg" p-id="903" xmlns:xlink="http://www.w3.org/1999/xlink" width="203.125" height="200"><defs><style type="text/css"></style></defs><path d="M769.68692 490.36526c-14.390755-4.341888-24.252357-7.297197-16.71673-26.348088 16.311501-41.336454 18.014282-77.016071 0.304945-102.44523-33.164331-47.743374-123.94694-45.161572-227.989551-1.304715 0-0.049119-32.66598 14.403035-24.326035-11.701506 16.011672-51.80897 13.596669-95.204315-11.308557-120.266108-56.450686-56.874335-206.564589 2.14485-335.283206 131.750673-96.395444 97.099479-152.378479 199.988824-152.378479 288.961204 0 170.199357 216.72602 273.681196 428.740738 273.681196 277.94736 0 462.836277-162.613588 462.836277-291.750737C893.565299 552.946574 828.313156 508.666068 769.68692 490.36526L769.68692 490.36526 769.68692 490.36526zM431.29798 861.682148c-169.189354 16.815991-315.224358-60.199057-326.214666-172.057681-10.983145-111.840204 117.304659-216.150922 286.462291-232.998635 169.20061-16.841573 315.254034 60.162218 326.213643 171.989119C728.717833 740.523717 600.517009 844.828294 431.29798 861.682148L431.29798 861.682148 431.29798 861.682148zM954.257589 178.909739c-67.12377-74.944899-166.133761-103.518678-257.500679-83.944877l-0.056282 0c-21.140483 4.558829-34.619472 25.497721-30.090319 46.756907 4.50971 21.282722 25.300222 34.874275 46.451962 30.332842 65.001433-13.897521 135.367037 6.430456 183.072549 59.655681 47.686069 53.244668 60.623729 125.856429 40.207747 189.504028l0.013303 0.01228c-6.649444 20.739347 4.607948 42.908252 25.229614 49.612954 20.516266 6.687306 42.590004-4.627391 49.25889-25.311479l0.019443-0.150426C1039.498996 355.827101 1021.397732 253.786077 954.257589 178.909739M851.180979 272.579095c-32.659841-36.495192-80.901565-50.355875-125.431757-40.830941-18.206664 3.917216-29.78435 21.949918-25.904996 40.287565 3.90596 18.271132 21.801539 30.009478 39.952944 26.0237l0 0.049119c21.769816-4.640694 45.378513 2.116197 61.333904 19.929912 15.994276 17.84646 20.297278 42.165332 13.44215 63.504336l0.031722 0c-5.709025 17.802458 3.966335 36.951587 21.668509 42.72815 17.715477 5.706979 36.688597-4.022617 42.397622-21.868053C892.672976 358.784456 883.928824 309.070194 851.180979 272.579095M448.201975 542.710442c-80.508615-21.089317-171.490769 19.317974-206.464305 90.750887-35.617196 72.861448-1.186012 153.738453 80.158644 180.179662 84.244706 27.358091 183.559643-14.570857 218.09725-93.215008C574.037938 643.559315 531.516496 564.392254 448.201975 542.710442L448.201975 542.710442 448.201975 542.710442zM386.728902 728.765929c-16.367783 26.297946-51.41602 37.823444-77.799924 25.686009-26.016537-11.920494-33.689287-42.452881-17.328667-68.103074 16.168238-25.536606 50.037626-36.901445 76.229149-25.841551C394.33309 671.892617 402.797879 702.225459 386.728902 728.765929L386.728902 728.765929 386.728902 728.765929zM440.640766 659.09208c-5.925966 10.18599-19.005866 15.09479-29.254278 10.840906-10.07445-4.16588-13.229303-15.568581-7.503904-25.580608 5.894244-9.960863 18.46249-14.807241 28.511357-10.789741C442.6137 637.309984 446.286346 648.843668 440.640766 659.09208L440.640766 659.09208 440.640766 659.09208zM440.640766 659.09208" p-id="904"></path></svg>